<?xml version="1.0" encoding="utf-8" standalone="no"?>
<!DOCTYPE svg PUBLIC "-//W3C//DTD SVG 1.1//EN"
  "http://www.w3.org/Graphics/SVG/1.1/DTD/svg11.dtd">
<svg xmlns:xlink="http://www.w3.org/1999/xlink" width="432pt" height="288pt" viewBox="0 0 432 288" xmlns="http://www.w3.org/2000/svg" version="1.1">
 <metadata>
  <rdf:RDF xmlns:dc="http://purl.org/dc/elements/1.1/" xmlns:cc="http://creativecommons.org/ns#" xmlns:rdf="http://www.w3.org/1999/02/22-rdf-syntax-ns#">
   <cc:Work>
    <dc:type rdf:resource="http://purl.org/dc/dcmitype/StillImage"/>
    <dc:date>2022-03-31T13:13:41.260894</dc:date>
    <dc:format>image/svg+xml</dc:format>
    <dc:creator>
     <cc:Agent>
      <dc:title>Matplotlib v3.5.1, https://matplotlib.org/</dc:title>
     </cc:Agent>
    </dc:creator>
   </cc:Work>
  </rdf:RDF>
 </metadata>
 <defs>
  <style type="text/css">*{stroke-linejoin: round; stroke-linecap: butt}</style>
 </defs>
 <g id="figure_1">
  <g id="patch_1">
   <path d="M 0 288 
L 432 288 
L 432 0 
L 0 0 
z
" style="fill: #ffffff"/>
  </g>
  <g id="axes_1">
   <g id="patch_2">
    <path d="M 54 252 
L 388.8 252 
L 388.8 34.56 
L 54 34.56 
z
" style="fill: #eaeaf2"/>
   </g>
   <g id="matplotlib.axis_1">
    <g id="xtick_1">
     <g id="text_1">
      <!-- 1.753 -->
      <g style="fill: #262626" transform="translate(68.137969 269.373594)scale(0.11 -0.11)">
       <defs>
        <path id="ArialMT-31" d="M 2384 0 
L 1822 0 
L 1822 3584 
Q 1619 3391 1289 3197 
Q 959 3003 697 2906 
L 697 3450 
Q 1169 3672 1522 3987 
Q 1875 4303 2022 4600 
L 2384 4600 
L 2384 0 
z
" transform="scale(0.015625)"/>
        <path id="ArialMT-2e" d="M 581 0 
L 581 641 
L 1222 641 
L 1222 0 
L 581 0 
z
" transform="scale(0.015625)"/>
        <path id="ArialMT-37" d="M 303 3981 
L 303 4522 
L 3269 4522 
L 3269 4084 
Q 2831 3619 2401 2847 
Q 1972 2075 1738 1259 
Q 1569 684 1522 0 
L 944 0 
Q 953 541 1156 1306 
Q 1359 2072 1739 2783 
Q 2119 3494 2547 3981 
L 303 3981 
z
" transform="scale(0.015625)"/>
        <path id="ArialMT-35" d="M 266 1200 
L 856 1250 
Q 922 819 1161 601 
Q 1400 384 1738 384 
Q 2144 384 2425 690 
Q 2706 997 2706 1503 
Q 2706 1984 2436 2262 
Q 2166 2541 1728 2541 
Q 1456 2541 1237 2417 
Q 1019 2294 894 2097 
L 366 2166 
L 809 4519 
L 3088 4519 
L 3088 3981 
L 1259 3981 
L 1013 2750 
Q 1425 3038 1878 3038 
Q 2478 3038 2890 2622 
Q 3303 2206 3303 1553 
Q 3303 931 2941 478 
Q 2500 -78 1738 -78 
Q 1113 -78 717 272 
Q 322 622 266 1200 
z
" transform="scale(0.015625)"/>
        <path id="ArialMT-33" d="M 269 1209 
L 831 1284 
Q 928 806 1161 595 
Q 1394 384 1728 384 
Q 2125 384 2398 659 
Q 2672 934 2672 1341 
Q 2672 1728 2419 1979 
Q 2166 2231 1775 2231 
Q 1616 2231 1378 2169 
L 1441 2663 
Q 1497 2656 1531 2656 
Q 1891 2656 2178 2843 
Q 2466 3031 2466 3422 
Q 2466 3731 2256 3934 
Q 2047 4138 1716 4138 
Q 1388 4138 1169 3931 
Q 950 3725 888 3313 
L 325 3413 
Q 428 3978 793 4289 
Q 1159 4600 1703 4600 
Q 2078 4600 2393 4439 
Q 2709 4278 2876 4000 
Q 3044 3722 3044 3409 
Q 3044 3113 2884 2869 
Q 2725 2625 2413 2481 
Q 2819 2388 3044 2092 
Q 3269 1797 3269 1353 
Q 3269 753 2831 336 
Q 2394 -81 1725 -81 
Q 1122 -81 723 278 
Q 325 638 269 1209 
z
" transform="scale(0.015625)"/>
       </defs>
       <use xlink:href="#ArialMT-31"/>
       <use xlink:href="#ArialMT-2e" x="55.615234"/>
       <use xlink:href="#ArialMT-37" x="83.398438"/>
       <use xlink:href="#ArialMT-35" x="139.013672"/>
       <use xlink:href="#ArialMT-33" x="194.628906"/>
      </g>
     </g>
    </g>
    <g id="xtick_2">
     <g id="text_2">
      <!-- 1.476 -->
      <g style="fill: #262626" transform="translate(123.937969 269.373594)scale(0.11 -0.11)">
       <defs>
        <path id="ArialMT-34" d="M 2069 0 
L 2069 1097 
L 81 1097 
L 81 1613 
L 2172 4581 
L 2631 4581 
L 2631 1613 
L 3250 1613 
L 3250 1097 
L 2631 1097 
L 2631 0 
L 2069 0 
z
M 2069 1613 
L 2069 3678 
L 634 1613 
L 2069 1613 
z
" transform="scale(0.015625)"/>
        <path id="ArialMT-36" d="M 3184 3459 
L 2625 3416 
Q 2550 3747 2413 3897 
Q 2184 4138 1850 4138 
Q 1581 4138 1378 3988 
Q 1113 3794 959 3422 
Q 806 3050 800 2363 
Q 1003 2672 1297 2822 
Q 1591 2972 1913 2972 
Q 2475 2972 2870 2558 
Q 3266 2144 3266 1488 
Q 3266 1056 3080 686 
Q 2894 316 2569 119 
Q 2244 -78 1831 -78 
Q 1128 -78 684 439 
Q 241 956 241 2144 
Q 241 3472 731 4075 
Q 1159 4600 1884 4600 
Q 2425 4600 2770 4297 
Q 3116 3994 3184 3459 
z
M 888 1484 
Q 888 1194 1011 928 
Q 1134 663 1356 523 
Q 1578 384 1822 384 
Q 2178 384 2434 671 
Q 2691 959 2691 1453 
Q 2691 1928 2437 2201 
Q 2184 2475 1800 2475 
Q 1419 2475 1153 2201 
Q 888 1928 888 1484 
z
" transform="scale(0.015625)"/>
       </defs>
       <use xlink:href="#ArialMT-31"/>
       <use xlink:href="#ArialMT-2e" x="55.615234"/>
       <use xlink:href="#ArialMT-34" x="83.398438"/>
       <use xlink:href="#ArialMT-37" x="139.013672"/>
       <use xlink:href="#ArialMT-36" x="194.628906"/>
      </g>
     </g>
    </g>
    <g id="xtick_3">
     <g id="text_3">
      <!-- 1.119 -->
      <g style="fill: #262626" transform="translate(180.143594 269.373594)scale(0.11 -0.11)">
       <defs>
        <path id="ArialMT-39" d="M 350 1059 
L 891 1109 
Q 959 728 1153 556 
Q 1347 384 1650 384 
Q 1909 384 2104 503 
Q 2300 622 2425 820 
Q 2550 1019 2634 1356 
Q 2719 1694 2719 2044 
Q 2719 2081 2716 2156 
Q 2547 1888 2255 1720 
Q 1963 1553 1622 1553 
Q 1053 1553 659 1965 
Q 266 2378 266 3053 
Q 266 3750 677 4175 
Q 1088 4600 1706 4600 
Q 2153 4600 2523 4359 
Q 2894 4119 3086 3673 
Q 3278 3228 3278 2384 
Q 3278 1506 3087 986 
Q 2897 466 2520 194 
Q 2144 -78 1638 -78 
Q 1100 -78 759 220 
Q 419 519 350 1059 
z
M 2653 3081 
Q 2653 3566 2395 3850 
Q 2138 4134 1775 4134 
Q 1400 4134 1122 3828 
Q 844 3522 844 3034 
Q 844 2597 1108 2323 
Q 1372 2050 1759 2050 
Q 2150 2050 2401 2323 
Q 2653 2597 2653 3081 
z
" transform="scale(0.015625)"/>
       </defs>
       <use xlink:href="#ArialMT-31"/>
       <use xlink:href="#ArialMT-2e" x="55.615234"/>
       <use xlink:href="#ArialMT-31" x="83.398438"/>
       <use xlink:href="#ArialMT-31" x="131.638672"/>
       <use xlink:href="#ArialMT-39" x="187.253906"/>
      </g>
     </g>
    </g>
    <g id="xtick_4">
     <g id="text_4">
      <!-- 0.865 -->
      <g style="fill: #262626" transform="translate(235.537969 269.373594)scale(0.11 -0.11)">
       <defs>
        <path id="ArialMT-30" d="M 266 2259 
Q 266 3072 433 3567 
Q 600 4063 929 4331 
Q 1259 4600 1759 4600 
Q 2128 4600 2406 4451 
Q 2684 4303 2865 4023 
Q 3047 3744 3150 3342 
Q 3253 2941 3253 2259 
Q 3253 1453 3087 958 
Q 2922 463 2592 192 
Q 2263 -78 1759 -78 
Q 1097 -78 719 397 
Q 266 969 266 2259 
z
M 844 2259 
Q 844 1131 1108 757 
Q 1372 384 1759 384 
Q 2147 384 2411 759 
Q 2675 1134 2675 2259 
Q 2675 3391 2411 3762 
Q 2147 4134 1753 4134 
Q 1366 4134 1134 3806 
Q 844 3388 844 2259 
z
" transform="scale(0.015625)"/>
        <path id="ArialMT-38" d="M 1131 2484 
Q 781 2613 612 2850 
Q 444 3088 444 3419 
Q 444 3919 803 4259 
Q 1163 4600 1759 4600 
Q 2359 4600 2725 4251 
Q 3091 3903 3091 3403 
Q 3091 3084 2923 2848 
Q 2756 2613 2416 2484 
Q 2838 2347 3058 2040 
Q 3278 1734 3278 1309 
Q 3278 722 2862 322 
Q 2447 -78 1769 -78 
Q 1091 -78 675 323 
Q 259 725 259 1325 
Q 259 1772 486 2073 
Q 713 2375 1131 2484 
z
M 1019 3438 
Q 1019 3113 1228 2906 
Q 1438 2700 1772 2700 
Q 2097 2700 2305 2904 
Q 2513 3109 2513 3406 
Q 2513 3716 2298 3927 
Q 2084 4138 1766 4138 
Q 1444 4138 1231 3931 
Q 1019 3725 1019 3438 
z
M 838 1322 
Q 838 1081 952 856 
Q 1066 631 1291 507 
Q 1516 384 1775 384 
Q 2178 384 2440 643 
Q 2703 903 2703 1303 
Q 2703 1709 2433 1975 
Q 2163 2241 1756 2241 
Q 1359 2241 1098 1978 
Q 838 1716 838 1322 
z
" transform="scale(0.015625)"/>
       </defs>
       <use xlink:href="#ArialMT-30"/>
       <use xlink:href="#ArialMT-2e" x="55.615234"/>
       <use xlink:href="#ArialMT-38" x="83.398438"/>
       <use xlink:href="#ArialMT-36" x="139.013672"/>
       <use xlink:href="#ArialMT-35" x="194.628906"/>
      </g>
     </g>
    </g>
    <g id="xtick_5">
     <g id="text_5">
      <!-- 0.601 -->
      <g style="fill: #262626" transform="translate(291.337969 269.373594)scale(0.11 -0.11)">
       <use xlink:href="#ArialMT-30"/>
       <use xlink:href="#ArialMT-2e" x="55.615234"/>
       <use xlink:href="#ArialMT-36" x="83.398438"/>
       <use xlink:href="#ArialMT-30" x="139.013672"/>
       <use xlink:href="#ArialMT-31" x="194.628906"/>
      </g>
     </g>
    </g>
    <g id="xtick_6">
     <g id="text_6">
      <!-- 0.310 -->
      <g style="fill: #262626" transform="translate(347.137969 269.373594)scale(0.11 -0.11)">
       <use xlink:href="#ArialMT-30"/>
       <use xlink:href="#ArialMT-2e" x="55.615234"/>
       <use xlink:href="#ArialMT-33" x="83.398438"/>
       <use xlink:href="#ArialMT-31" x="139.013672"/>
       <use xlink:href="#ArialMT-30" x="194.628906"/>
      </g>
     </g>
    </g>
    <g id="text_7">
     <!-- Potencia [pu] -->
     <g style="fill: #262626" transform="translate(186.377813 284.149219)scale(0.12 -0.12)">
      <defs>
       <path id="ArialMT-50" d="M 494 0 
L 494 4581 
L 2222 4581 
Q 2678 4581 2919 4538 
Q 3256 4481 3484 4323 
Q 3713 4166 3852 3881 
Q 3991 3597 3991 3256 
Q 3991 2672 3619 2267 
Q 3247 1863 2275 1863 
L 1100 1863 
L 1100 0 
L 494 0 
z
M 1100 2403 
L 2284 2403 
Q 2872 2403 3119 2622 
Q 3366 2841 3366 3238 
Q 3366 3525 3220 3729 
Q 3075 3934 2838 4000 
Q 2684 4041 2272 4041 
L 1100 4041 
L 1100 2403 
z
" transform="scale(0.015625)"/>
       <path id="ArialMT-6f" d="M 213 1659 
Q 213 2581 725 3025 
Q 1153 3394 1769 3394 
Q 2453 3394 2887 2945 
Q 3322 2497 3322 1706 
Q 3322 1066 3130 698 
Q 2938 331 2570 128 
Q 2203 -75 1769 -75 
Q 1072 -75 642 372 
Q 213 819 213 1659 
z
M 791 1659 
Q 791 1022 1069 705 
Q 1347 388 1769 388 
Q 2188 388 2466 706 
Q 2744 1025 2744 1678 
Q 2744 2294 2464 2611 
Q 2184 2928 1769 2928 
Q 1347 2928 1069 2612 
Q 791 2297 791 1659 
z
" transform="scale(0.015625)"/>
       <path id="ArialMT-74" d="M 1650 503 
L 1731 6 
Q 1494 -44 1306 -44 
Q 1000 -44 831 53 
Q 663 150 594 308 
Q 525 466 525 972 
L 525 2881 
L 113 2881 
L 113 3319 
L 525 3319 
L 525 4141 
L 1084 4478 
L 1084 3319 
L 1650 3319 
L 1650 2881 
L 1084 2881 
L 1084 941 
Q 1084 700 1114 631 
Q 1144 563 1211 522 
Q 1278 481 1403 481 
Q 1497 481 1650 503 
z
" transform="scale(0.015625)"/>
       <path id="ArialMT-65" d="M 2694 1069 
L 3275 997 
Q 3138 488 2766 206 
Q 2394 -75 1816 -75 
Q 1088 -75 661 373 
Q 234 822 234 1631 
Q 234 2469 665 2931 
Q 1097 3394 1784 3394 
Q 2450 3394 2872 2941 
Q 3294 2488 3294 1666 
Q 3294 1616 3291 1516 
L 816 1516 
Q 847 969 1125 678 
Q 1403 388 1819 388 
Q 2128 388 2347 550 
Q 2566 713 2694 1069 
z
M 847 1978 
L 2700 1978 
Q 2663 2397 2488 2606 
Q 2219 2931 1791 2931 
Q 1403 2931 1139 2672 
Q 875 2413 847 1978 
z
" transform="scale(0.015625)"/>
       <path id="ArialMT-6e" d="M 422 0 
L 422 3319 
L 928 3319 
L 928 2847 
Q 1294 3394 1984 3394 
Q 2284 3394 2536 3286 
Q 2788 3178 2913 3003 
Q 3038 2828 3088 2588 
Q 3119 2431 3119 2041 
L 3119 0 
L 2556 0 
L 2556 2019 
Q 2556 2363 2490 2533 
Q 2425 2703 2258 2804 
Q 2091 2906 1866 2906 
Q 1506 2906 1245 2678 
Q 984 2450 984 1813 
L 984 0 
L 422 0 
z
" transform="scale(0.015625)"/>
       <path id="ArialMT-63" d="M 2588 1216 
L 3141 1144 
Q 3050 572 2676 248 
Q 2303 -75 1759 -75 
Q 1078 -75 664 370 
Q 250 816 250 1647 
Q 250 2184 428 2587 
Q 606 2991 970 3192 
Q 1334 3394 1763 3394 
Q 2303 3394 2647 3120 
Q 2991 2847 3088 2344 
L 2541 2259 
Q 2463 2594 2264 2762 
Q 2066 2931 1784 2931 
Q 1359 2931 1093 2626 
Q 828 2322 828 1663 
Q 828 994 1084 691 
Q 1341 388 1753 388 
Q 2084 388 2306 591 
Q 2528 794 2588 1216 
z
" transform="scale(0.015625)"/>
       <path id="ArialMT-69" d="M 425 3934 
L 425 4581 
L 988 4581 
L 988 3934 
L 425 3934 
z
M 425 0 
L 425 3319 
L 988 3319 
L 988 0 
L 425 0 
z
" transform="scale(0.015625)"/>
       <path id="ArialMT-61" d="M 2588 409 
Q 2275 144 1986 34 
Q 1697 -75 1366 -75 
Q 819 -75 525 192 
Q 231 459 231 875 
Q 231 1119 342 1320 
Q 453 1522 633 1644 
Q 813 1766 1038 1828 
Q 1203 1872 1538 1913 
Q 2219 1994 2541 2106 
Q 2544 2222 2544 2253 
Q 2544 2597 2384 2738 
Q 2169 2928 1744 2928 
Q 1347 2928 1158 2789 
Q 969 2650 878 2297 
L 328 2372 
Q 403 2725 575 2942 
Q 747 3159 1072 3276 
Q 1397 3394 1825 3394 
Q 2250 3394 2515 3294 
Q 2781 3194 2906 3042 
Q 3031 2891 3081 2659 
Q 3109 2516 3109 2141 
L 3109 1391 
Q 3109 606 3145 398 
Q 3181 191 3288 0 
L 2700 0 
Q 2613 175 2588 409 
z
M 2541 1666 
Q 2234 1541 1622 1453 
Q 1275 1403 1131 1340 
Q 988 1278 909 1158 
Q 831 1038 831 891 
Q 831 666 1001 516 
Q 1172 366 1500 366 
Q 1825 366 2078 508 
Q 2331 650 2450 897 
Q 2541 1088 2541 1459 
L 2541 1666 
z
" transform="scale(0.015625)"/>
       <path id="ArialMT-20" transform="scale(0.015625)"/>
       <path id="ArialMT-5b" d="M 434 -1272 
L 434 4581 
L 1675 4581 
L 1675 4116 
L 997 4116 
L 997 -806 
L 1675 -806 
L 1675 -1272 
L 434 -1272 
z
" transform="scale(0.015625)"/>
       <path id="ArialMT-70" d="M 422 -1272 
L 422 3319 
L 934 3319 
L 934 2888 
Q 1116 3141 1344 3267 
Q 1572 3394 1897 3394 
Q 2322 3394 2647 3175 
Q 2972 2956 3137 2557 
Q 3303 2159 3303 1684 
Q 3303 1175 3120 767 
Q 2938 359 2589 142 
Q 2241 -75 1856 -75 
Q 1575 -75 1351 44 
Q 1128 163 984 344 
L 984 -1272 
L 422 -1272 
z
M 931 1641 
Q 931 1000 1190 694 
Q 1450 388 1819 388 
Q 2194 388 2461 705 
Q 2728 1022 2728 1688 
Q 2728 2322 2467 2637 
Q 2206 2953 1844 2953 
Q 1484 2953 1207 2617 
Q 931 2281 931 1641 
z
" transform="scale(0.015625)"/>
       <path id="ArialMT-75" d="M 2597 0 
L 2597 488 
Q 2209 -75 1544 -75 
Q 1250 -75 995 37 
Q 741 150 617 320 
Q 494 491 444 738 
Q 409 903 409 1263 
L 409 3319 
L 972 3319 
L 972 1478 
Q 972 1038 1006 884 
Q 1059 663 1231 536 
Q 1403 409 1656 409 
Q 1909 409 2131 539 
Q 2353 669 2445 892 
Q 2538 1116 2538 1541 
L 2538 3319 
L 3100 3319 
L 3100 0 
L 2597 0 
z
" transform="scale(0.015625)"/>
       <path id="ArialMT-5d" d="M 1363 -1272 
L 122 -1272 
L 122 -806 
L 800 -806 
L 800 4116 
L 122 4116 
L 122 4581 
L 1363 4581 
L 1363 -1272 
z
" transform="scale(0.015625)"/>
      </defs>
      <use xlink:href="#ArialMT-50"/>
      <use xlink:href="#ArialMT-6f" x="66.699219"/>
      <use xlink:href="#ArialMT-74" x="122.314453"/>
      <use xlink:href="#ArialMT-65" x="150.097656"/>
      <use xlink:href="#ArialMT-6e" x="205.712891"/>
      <use xlink:href="#ArialMT-63" x="261.328125"/>
      <use xlink:href="#ArialMT-69" x="311.328125"/>
      <use xlink:href="#ArialMT-61" x="333.544922"/>
      <use xlink:href="#ArialMT-20" x="389.160156"/>
      <use xlink:href="#ArialMT-5b" x="416.943359"/>
      <use xlink:href="#ArialMT-70" x="444.726562"/>
      <use xlink:href="#ArialMT-75" x="500.341797"/>
      <use xlink:href="#ArialMT-5d" x="555.957031"/>
     </g>
    </g>
   </g>
   <g id="matplotlib.axis_2">
    <g id="ytick_1">
     <g id="line2d_1">
      <path d="M 54 217.299521 
L 388.8 217.299521 
" clip-path="url(#p8ebebcb4cd)" style="fill: none; stroke: #ffffff; stroke-linecap: round"/>
     </g>
     <g id="text_8">
      <!-- 0.84 -->
      <g style="fill: #262626" transform="translate(23.092969 221.236318)scale(0.11 -0.11)">
       <use xlink:href="#ArialMT-30"/>
       <use xlink:href="#ArialMT-2e" x="55.615234"/>
       <use xlink:href="#ArialMT-38" x="83.398438"/>
       <use xlink:href="#ArialMT-34" x="139.013672"/>
      </g>
     </g>
    </g>
    <g id="ytick_2">
     <g id="line2d_2">
      <path d="M 54 173.681387 
L 388.8 173.681387 
" clip-path="url(#p8ebebcb4cd)" style="fill: none; stroke: #ffffff; stroke-linecap: round"/>
     </g>
     <g id="text_9">
      <!-- 0.86 -->
      <g style="fill: #262626" transform="translate(23.092969 177.618184)scale(0.11 -0.11)">
       <use xlink:href="#ArialMT-30"/>
       <use xlink:href="#ArialMT-2e" x="55.615234"/>
       <use xlink:href="#ArialMT-38" x="83.398438"/>
       <use xlink:href="#ArialMT-36" x="139.013672"/>
      </g>
     </g>
    </g>
    <g id="ytick_3">
     <g id="line2d_3">
      <path d="M 54 130.063253 
L 388.8 130.063253 
" clip-path="url(#p8ebebcb4cd)" style="fill: none; stroke: #ffffff; stroke-linecap: round"/>
     </g>
     <g id="text_10">
      <!-- 0.88 -->
      <g style="fill: #262626" transform="translate(23.092969 134.00005)scale(0.11 -0.11)">
       <use xlink:href="#ArialMT-30"/>
       <use xlink:href="#ArialMT-2e" x="55.615234"/>
       <use xlink:href="#ArialMT-38" x="83.398438"/>
       <use xlink:href="#ArialMT-38" x="139.013672"/>
      </g>
     </g>
    </g>
    <g id="ytick_4">
     <g id="line2d_4">
      <path d="M 54 86.445119 
L 388.8 86.445119 
" clip-path="url(#p8ebebcb4cd)" style="fill: none; stroke: #ffffff; stroke-linecap: round"/>
     </g>
     <g id="text_11">
      <!-- 0.90 -->
      <g style="fill: #262626" transform="translate(23.092969 90.381916)scale(0.11 -0.11)">
       <use xlink:href="#ArialMT-30"/>
       <use xlink:href="#ArialMT-2e" x="55.615234"/>
       <use xlink:href="#ArialMT-39" x="83.398438"/>
       <use xlink:href="#ArialMT-30" x="139.013672"/>
      </g>
     </g>
    </g>
    <g id="ytick_5">
     <g id="line2d_5">
      <path d="M 54 42.826986 
L 388.8 42.826986 
" clip-path="url(#p8ebebcb4cd)" style="fill: none; stroke: #ffffff; stroke-linecap: round"/>
     </g>
     <g id="text_12">
      <!-- 0.92 -->
      <g style="fill: #262626" transform="translate(23.092969 46.763782)scale(0.11 -0.11)">
       <defs>
        <path id="ArialMT-32" d="M 3222 541 
L 3222 0 
L 194 0 
Q 188 203 259 391 
Q 375 700 629 1000 
Q 884 1300 1366 1694 
Q 2113 2306 2375 2664 
Q 2638 3022 2638 3341 
Q 2638 3675 2398 3904 
Q 2159 4134 1775 4134 
Q 1369 4134 1125 3890 
Q 881 3647 878 3216 
L 300 3275 
Q 359 3922 746 4261 
Q 1134 4600 1788 4600 
Q 2447 4600 2831 4234 
Q 3216 3869 3216 3328 
Q 3216 3053 3103 2787 
Q 2991 2522 2730 2228 
Q 2469 1934 1863 1422 
Q 1356 997 1212 845 
Q 1069 694 975 541 
L 3222 541 
z
" transform="scale(0.015625)"/>
       </defs>
       <use xlink:href="#ArialMT-30"/>
       <use xlink:href="#ArialMT-2e" x="55.615234"/>
       <use xlink:href="#ArialMT-39" x="83.398438"/>
       <use xlink:href="#ArialMT-32" x="139.013672"/>
      </g>
     </g>
    </g>
    <g id="text_13">
     <!-- Rendimento -->
     <g style="fill: #262626" transform="translate(16.707969 175.630313)rotate(-90)scale(0.12 -0.12)">
      <defs>
       <path id="ArialMT-52" d="M 503 0 
L 503 4581 
L 2534 4581 
Q 3147 4581 3465 4457 
Q 3784 4334 3975 4021 
Q 4166 3709 4166 3331 
Q 4166 2844 3850 2509 
Q 3534 2175 2875 2084 
Q 3116 1969 3241 1856 
Q 3506 1613 3744 1247 
L 4541 0 
L 3778 0 
L 3172 953 
Q 2906 1366 2734 1584 
Q 2563 1803 2427 1890 
Q 2291 1978 2150 2013 
Q 2047 2034 1813 2034 
L 1109 2034 
L 1109 0 
L 503 0 
z
M 1109 2559 
L 2413 2559 
Q 2828 2559 3062 2645 
Q 3297 2731 3419 2920 
Q 3541 3109 3541 3331 
Q 3541 3656 3305 3865 
Q 3069 4075 2559 4075 
L 1109 4075 
L 1109 2559 
z
" transform="scale(0.015625)"/>
       <path id="ArialMT-64" d="M 2575 0 
L 2575 419 
Q 2259 -75 1647 -75 
Q 1250 -75 917 144 
Q 584 363 401 755 
Q 219 1147 219 1656 
Q 219 2153 384 2558 
Q 550 2963 881 3178 
Q 1213 3394 1622 3394 
Q 1922 3394 2156 3267 
Q 2391 3141 2538 2938 
L 2538 4581 
L 3097 4581 
L 3097 0 
L 2575 0 
z
M 797 1656 
Q 797 1019 1065 703 
Q 1334 388 1700 388 
Q 2069 388 2326 689 
Q 2584 991 2584 1609 
Q 2584 2291 2321 2609 
Q 2059 2928 1675 2928 
Q 1300 2928 1048 2622 
Q 797 2316 797 1656 
z
" transform="scale(0.015625)"/>
       <path id="ArialMT-6d" d="M 422 0 
L 422 3319 
L 925 3319 
L 925 2853 
Q 1081 3097 1340 3245 
Q 1600 3394 1931 3394 
Q 2300 3394 2536 3241 
Q 2772 3088 2869 2813 
Q 3263 3394 3894 3394 
Q 4388 3394 4653 3120 
Q 4919 2847 4919 2278 
L 4919 0 
L 4359 0 
L 4359 2091 
Q 4359 2428 4304 2576 
Q 4250 2725 4106 2815 
Q 3963 2906 3769 2906 
Q 3419 2906 3187 2673 
Q 2956 2441 2956 1928 
L 2956 0 
L 2394 0 
L 2394 2156 
Q 2394 2531 2256 2718 
Q 2119 2906 1806 2906 
Q 1569 2906 1367 2781 
Q 1166 2656 1075 2415 
Q 984 2175 984 1722 
L 984 0 
L 422 0 
z
" transform="scale(0.015625)"/>
      </defs>
      <use xlink:href="#ArialMT-52"/>
      <use xlink:href="#ArialMT-65" x="72.216797"/>
      <use xlink:href="#ArialMT-6e" x="127.832031"/>
      <use xlink:href="#ArialMT-64" x="183.447266"/>
      <use xlink:href="#ArialMT-69" x="239.0625"/>
      <use xlink:href="#ArialMT-6d" x="261.279297"/>
      <use xlink:href="#ArialMT-65" x="344.580078"/>
      <use xlink:href="#ArialMT-6e" x="400.195312"/>
      <use xlink:href="#ArialMT-74" x="455.810547"/>
      <use xlink:href="#ArialMT-6f" x="483.59375"/>
     </g>
    </g>
   </g>
   <g id="PolyCollection_1">
    <defs>
     <path id="m7c746b410d" d="M 81.919602 -71.906829 
L 81.880398 -71.906829 
L 81.866036 -73.086572 
L 81.843609 -74.266316 
L 81.810142 -75.44606 
L 81.762325 -76.625803 
L 81.696765 -77.805547 
L 81.610292 -78.985291 
L 81.500251 -80.165034 
L 81.364752 -81.344778 
L 81.202855 -82.524522 
L 81.014708 -83.704265 
L 80.801664 -84.884009 
L 80.566388 -86.063753 
L 80.312883 -87.243497 
L 80.046328 -88.42324 
L 79.772627 -89.602984 
L 79.497623 -90.782728 
L 79.226115 -91.962471 
L 78.960943 -93.142215 
L 78.702502 -94.321959 
L 78.448941 -95.501702 
L 78.197103 -96.681446 
L 77.943928 -97.86119 
L 77.687815 -99.040934 
L 77.429389 -100.220677 
L 77.171326 -101.400421 
L 76.917256 -102.580165 
L 76.670165 -103.759908 
L 76.430961 -104.939652 
L 76.197774 -106.119396 
L 75.966275 -107.299139 
L 75.730879 -108.478883 
L 75.486356 -109.658627 
L 75.229318 -110.83837 
L 74.959183 -112.018114 
L 74.678526 -113.197858 
L 74.392933 -114.377602 
L 74.110539 -115.557345 
L 73.841315 -116.737089 
L 73.596071 -117.916833 
L 73.385085 -119.096576 
L 73.216479 -120.27632 
L 73.094666 -121.456064 
L 73.019414 -122.635807 
L 72.985937 -123.815551 
L 72.986139 -124.995295 
L 73.010643 -126.175038 
L 73.050965 -127.354782 
L 73.101109 -128.534526 
L 73.158179 -129.71427 
L 73.222032 -130.894013 
L 73.294352 -132.073757 
L 73.377639 -133.253501 
L 73.474424 -134.433244 
L 73.58673 -135.612988 
L 73.715606 -136.792732 
L 73.860574 -137.972475 
L 74.019102 -139.152219 
L 74.186427 -140.331963 
L 74.35613 -141.511706 
L 74.521574 -142.69145 
L 74.677924 -143.871194 
L 74.824034 -145.050938 
L 74.963413 -146.230681 
L 75.103744 -147.410425 
L 75.254971 -148.590169 
L 75.426556 -149.769912 
L 75.624849 -150.949656 
L 75.851496 -152.1294 
L 76.103394 -153.309143 
L 76.374131 -154.488887 
L 76.656297 -155.668631 
L 76.94381 -156.848375 
L 77.233469 -158.028118 
L 77.525315 -159.207862 
L 77.821837 -160.387606 
L 78.126409 -161.567349 
L 78.441544 -162.747093 
L 78.767459 -163.926837 
L 79.101317 -165.10658 
L 79.437257 -166.286324 
L 79.767155 -167.466068 
L 80.081905 -168.645811 
L 80.37293 -169.825555 
L 80.633583 -171.005299 
L 80.860117 -172.185043 
L 81.052019 -173.364786 
L 81.211633 -174.54453 
L 81.343253 -175.724274 
L 81.451949 -176.904017 
L 81.542491 -178.083761 
L 81.61864 -179.263505 
L 81.682916 -180.443248 
L 81.736778 -181.622992 
L 81.781046 -182.802736 
L 81.816346 -183.982479 
L 81.843435 -185.162223 
L 81.863324 -186.341967 
L 81.877245 -187.521711 
L 81.886512 -188.701454 
L 81.913488 -188.701454 
L 81.913488 -188.701454 
L 81.922755 -187.521711 
L 81.936676 -186.341967 
L 81.956565 -185.162223 
L 81.983654 -183.982479 
L 82.018954 -182.802736 
L 82.063222 -181.622992 
L 82.117084 -180.443248 
L 82.18136 -179.263505 
L 82.257509 -178.083761 
L 82.348051 -176.904017 
L 82.456747 -175.724274 
L 82.588367 -174.54453 
L 82.747981 -173.364786 
L 82.939883 -172.185043 
L 83.166417 -171.005299 
L 83.42707 -169.825555 
L 83.718095 -168.645811 
L 84.032845 -167.466068 
L 84.362743 -166.286324 
L 84.698683 -165.10658 
L 85.032541 -163.926837 
L 85.358456 -162.747093 
L 85.673591 -161.567349 
L 85.978163 -160.387606 
L 86.274685 -159.207862 
L 86.566531 -158.028118 
L 86.85619 -156.848375 
L 87.143703 -155.668631 
L 87.425869 -154.488887 
L 87.696606 -153.309143 
L 87.948504 -152.1294 
L 88.175151 -150.949656 
L 88.373444 -149.769912 
L 88.545029 -148.590169 
L 88.696256 -147.410425 
L 88.836587 -146.230681 
L 88.975966 -145.050938 
L 89.122076 -143.871194 
L 89.278426 -142.69145 
L 89.44387 -141.511706 
L 89.613573 -140.331963 
L 89.780898 -139.152219 
L 89.939426 -137.972475 
L 90.084394 -136.792732 
L 90.21327 -135.612988 
L 90.325576 -134.433244 
L 90.422361 -133.253501 
L 90.505648 -132.073757 
L 90.577968 -130.894013 
L 90.641821 -129.71427 
L 90.698891 -128.534526 
L 90.749035 -127.354782 
L 90.789357 -126.175038 
L 90.813861 -124.995295 
L 90.814063 -123.815551 
L 90.780586 -122.635807 
L 90.705334 -121.456064 
L 90.583521 -120.27632 
L 90.414915 -119.096576 
L 90.203929 -117.916833 
L 89.958685 -116.737089 
L 89.689461 -115.557345 
L 89.407067 -114.377602 
L 89.121474 -113.197858 
L 88.840817 -112.018114 
L 88.570682 -110.83837 
L 88.313644 -109.658627 
L 88.069121 -108.478883 
L 87.833725 -107.299139 
L 87.602226 -106.119396 
L 87.369039 -104.939652 
L 87.129835 -103.759908 
L 86.882744 -102.580165 
L 86.628674 -101.400421 
L 86.370611 -100.220677 
L 86.112185 -99.040934 
L 85.856072 -97.86119 
L 85.602897 -96.681446 
L 85.351059 -95.501702 
L 85.097498 -94.321959 
L 84.839057 -93.142215 
L 84.573885 -91.962471 
L 84.302377 -90.782728 
L 84.027373 -89.602984 
L 83.753672 -88.42324 
L 83.487117 -87.243497 
L 83.233612 -86.063753 
L 82.998336 -84.884009 
L 82.785292 -83.704265 
L 82.597145 -82.524522 
L 82.435248 -81.344778 
L 82.299749 -80.165034 
L 82.189708 -78.985291 
L 82.103235 -77.805547 
L 82.037675 -76.625803 
L 81.989858 -75.44606 
L 81.956391 -74.266316 
L 81.933964 -73.086572 
L 81.919602 -71.906829 
z
" style="stroke: #494949; stroke-width: 1.5"/>
    </defs>
    <g clip-path="url(#p8ebebcb4cd)">
     <use xlink:href="#m7c746b410d" x="0" y="288" style="fill: #5875a4; stroke: #494949; stroke-width: 1.5"/>
    </g>
   </g>
   <g id="PolyCollection_2">
    <defs>
     <path id="m09cc48153d" d="M 137.706288 -95.827522 
L 137.693712 -95.827522 
L 137.689462 -97.044064 
L 137.683246 -98.260606 
L 137.674589 -99.477148 
L 137.662969 -100.69369 
L 137.647716 -101.910233 
L 137.627871 -103.126775 
L 137.602058 -104.343317 
L 137.568483 -105.559859 
L 137.525109 -106.776401 
L 137.46999 -107.992943 
L 137.401598 -109.209485 
L 137.318977 -110.426027 
L 137.221588 -111.642569 
L 137.108874 -112.859111 
L 136.979773 -114.075654 
L 136.832451 -115.292196 
L 136.66448 -116.508738 
L 136.473507 -117.72528 
L 136.258198 -118.941822 
L 136.019114 -120.158364 
L 135.759111 -121.374906 
L 135.483024 -122.591448 
L 135.196559 -123.80799 
L 134.904676 -125.024532 
L 134.609905 -126.241075 
L 134.311232 -127.457617 
L 134.004092 -128.674159 
L 133.681717 -129.890701 
L 133.337574 -131.107243 
L 132.968042 -132.323785 
L 132.574184 -133.540327 
L 132.161682 -134.756869 
L 131.738794 -135.973411 
L 131.31331 -137.189953 
L 130.890196 -138.406496 
L 130.471386 -139.623038 
L 130.058113 -140.83958 
L 129.654585 -142.056122 
L 129.270929 -143.272664 
L 128.923444 -144.489206 
L 128.631561 -145.705748 
L 128.412513 -146.92229 
L 128.275844 -148.138832 
L 128.219963 -149.355374 
L 128.232004 -150.571917 
L 128.290936 -151.788459 
L 128.372757 -153.005001 
L 128.456043 -154.221543 
L 128.526237 -155.438085 
L 128.577623 -156.654627 
L 128.612642 -157.871169 
L 128.639013 -159.087711 
L 128.665723 -160.304253 
L 128.699348 -161.520795 
L 128.742099 -162.737338 
L 128.792284 -163.95388 
L 128.846856 -165.170422 
L 128.904652 -166.386964 
L 128.968619 -167.603506 
L 129.045934 -168.820048 
L 129.14613 -170.03659 
L 129.278422 -171.253132 
L 129.449632 -172.469674 
L 129.663464 -173.686216 
L 129.920837 -174.902759 
L 130.22043 -176.119301 
L 130.558817 -177.335843 
L 130.930241 -178.552385 
L 131.326642 -179.768927 
L 131.738466 -180.985469 
L 132.156141 -182.202011 
L 132.571568 -183.418553 
L 132.978843 -184.635095 
L 133.373959 -185.851637 
L 133.753914 -187.06818 
L 134.116014 -188.284722 
L 134.457925 -189.501264 
L 134.778435 -190.717806 
L 135.078281 -191.934348 
L 135.360302 -193.15089 
L 135.62854 -194.367432 
L 135.886579 -195.583974 
L 136.135879 -196.800516 
L 136.374927 -198.017058 
L 136.599619 -199.233601 
L 136.80469 -200.450143 
L 136.98552 -201.666685 
L 137.139562 -202.883227 
L 137.26687 -204.099769 
L 137.369702 -205.316311 
L 137.451566 -206.532853 
L 137.5162 -207.749395 
L 137.56688 -208.965937 
L 137.606174 -210.182479 
L 137.636041 -211.399022 
L 137.658075 -212.615564 
L 137.673703 -213.832106 
L 137.684281 -215.048648 
L 137.691075 -216.26519 
L 137.708925 -216.26519 
L 137.708925 -216.26519 
L 137.715719 -215.048648 
L 137.726297 -213.832106 
L 137.741925 -212.615564 
L 137.763959 -211.399022 
L 137.793826 -210.182479 
L 137.83312 -208.965937 
L 137.8838 -207.749395 
L 137.948434 -206.532853 
L 138.030298 -205.316311 
L 138.13313 -204.099769 
L 138.260438 -202.883227 
L 138.41448 -201.666685 
L 138.59531 -200.450143 
L 138.800381 -199.233601 
L 139.025073 -198.017058 
L 139.264121 -196.800516 
L 139.513421 -195.583974 
L 139.77146 -194.367432 
L 140.039698 -193.15089 
L 140.321719 -191.934348 
L 140.621565 -190.717806 
L 140.942075 -189.501264 
L 141.283986 -188.284722 
L 141.646086 -187.06818 
L 142.026041 -185.851637 
L 142.421157 -184.635095 
L 142.828432 -183.418553 
L 143.243859 -182.202011 
L 143.661534 -180.985469 
L 144.073358 -179.768927 
L 144.469759 -178.552385 
L 144.841183 -177.335843 
L 145.17957 -176.119301 
L 145.479163 -174.902759 
L 145.736536 -173.686216 
L 145.950368 -172.469674 
L 146.121578 -171.253132 
L 146.25387 -170.03659 
L 146.354066 -168.820048 
L 146.431381 -167.603506 
L 146.495348 -166.386964 
L 146.553144 -165.170422 
L 146.607716 -163.95388 
L 146.657901 -162.737338 
L 146.700652 -161.520795 
L 146.734277 -160.304253 
L 146.760987 -159.087711 
L 146.787358 -157.871169 
L 146.822377 -156.654627 
L 146.873763 -155.438085 
L 146.943957 -154.221543 
L 147.027243 -153.005001 
L 147.109064 -151.788459 
L 147.167996 -150.571917 
L 147.180037 -149.355374 
L 147.124156 -148.138832 
L 146.987487 -146.92229 
L 146.768439 -145.705748 
L 146.476556 -144.489206 
L 146.129071 -143.272664 
L 145.745415 -142.056122 
L 145.341887 -140.83958 
L 144.928614 -139.623038 
L 144.509804 -138.406496 
L 144.08669 -137.189953 
L 143.661206 -135.973411 
L 143.238318 -134.756869 
L 142.825816 -133.540327 
L 142.431958 -132.323785 
L 142.062426 -131.107243 
L 141.718283 -129.890701 
L 141.395908 -128.674159 
L 141.088768 -127.457617 
L 140.790095 -126.241075 
L 140.495324 -125.024532 
L 140.203441 -123.80799 
L 139.916976 -122.591448 
L 139.640889 -121.374906 
L 139.380886 -120.158364 
L 139.141802 -118.941822 
L 138.926493 -117.72528 
L 138.73552 -116.508738 
L 138.567549 -115.292196 
L 138.420227 -114.075654 
L 138.291126 -112.859111 
L 138.178412 -111.642569 
L 138.081023 -110.426027 
L 137.998402 -109.209485 
L 137.93001 -107.992943 
L 137.874891 -106.776401 
L 137.831517 -105.559859 
L 137.797942 -104.343317 
L 137.772129 -103.126775 
L 137.752284 -101.910233 
L 137.737031 -100.69369 
L 137.725411 -99.477148 
L 137.716754 -98.260606 
L 137.710538 -97.044064 
L 137.706288 -95.827522 
z
" style="stroke: #494949; stroke-width: 1.5"/>
    </defs>
    <g clip-path="url(#p8ebebcb4cd)">
     <use xlink:href="#m09cc48153d" x="0" y="288" style="fill: #cc8963; stroke: #494949; stroke-width: 1.5"/>
    </g>
   </g>
   <g id="PolyCollection_3">
    <defs>
     <path id="m9bd51c8dca" d="M 193.507062 -133.840394 
L 193.492938 -133.840394 
L 193.488151 -134.920107 
L 193.481504 -135.99982 
L 193.473056 -137.079533 
L 193.463173 -138.159246 
L 193.45233 -139.238959 
L 193.44065 -140.318672 
L 193.42726 -141.398385 
L 193.409698 -142.478098 
L 193.383624 -143.557811 
L 193.343042 -144.637524 
L 193.281037 -145.717237 
L 193.190869 -146.79695 
L 193.067127 -147.876663 
L 192.906713 -148.956376 
L 192.70951 -150.036089 
L 192.478698 -151.115802 
L 192.220715 -152.195515 
L 191.944822 -153.275228 
L 191.662107 -154.354941 
L 191.383782 -155.434654 
L 191.118801 -156.514367 
L 190.871184 -157.59408 
L 190.637855 -158.673793 
L 190.407954 -159.753506 
L 190.164237 -160.833218 
L 189.886503 -161.912931 
L 189.556166 -162.992644 
L 189.160703 -164.072357 
L 188.69677 -165.15207 
L 188.171268 -166.231783 
L 187.600201 -167.311496 
L 187.005674 -168.391209 
L 186.411784 -169.470922 
L 185.840409 -170.550635 
L 185.307922 -171.630348 
L 184.823604 -172.710061 
L 184.390028 -173.789774 
L 184.005071 -174.869487 
L 183.664619 -175.9492 
L 183.364787 -177.028913 
L 183.102596 -178.108626 
L 182.874894 -179.188339 
L 182.676452 -180.268052 
L 182.498984 -181.347765 
L 182.332642 -182.427478 
L 182.17004 -183.507191 
L 182.010953 -184.586904 
L 181.864821 -185.666617 
L 181.748953 -186.74633 
L 181.682624 -187.826043 
L 181.679693 -188.905756 
L 181.743393 -189.985469 
L 181.865794 -191.065182 
L 182.032023 -192.144894 
L 182.226894 -193.224607 
L 182.44073 -194.30432 
L 182.672016 -195.384033 
L 182.926291 -196.463746 
L 183.212362 -197.543459 
L 183.5377 -198.623172 
L 183.904762 -199.702885 
L 184.309395 -200.782598 
L 184.741628 -201.862311 
L 185.188375 -202.942024 
L 185.636871 -204.021737 
L 186.077459 -205.10145 
L 186.504772 -206.181163 
L 186.917231 -207.260876 
L 187.315634 -208.340589 
L 187.701892 -209.420302 
L 188.078622 -210.500015 
L 188.449482 -211.579728 
L 188.819573 -212.659441 
L 189.195042 -213.739154 
L 189.581557 -214.818867 
L 189.98204 -215.89858 
L 190.394682 -216.978293 
L 190.812307 -218.058006 
L 191.22352 -219.137719 
L 191.615255 -220.217432 
L 191.975621 -221.297145 
L 192.295978 -222.376858 
L 192.571672 -223.45657 
L 192.801595 -224.536283 
L 192.987197 -225.615996 
L 193.131599 -226.695709 
L 193.239125 -227.775422 
L 193.315146 -228.855135 
L 193.365933 -229.934848 
L 193.398234 -231.014561 
L 193.418553 -232.094274 
L 193.432343 -233.173987 
L 193.443402 -234.2537 
L 193.453731 -235.333413 
L 193.46384 -236.413126 
L 193.473353 -237.492839 
L 193.481628 -238.572552 
L 193.488199 -239.652265 
L 193.492955 -240.731978 
L 193.507045 -240.731978 
L 193.507045 -240.731978 
L 193.511801 -239.652265 
L 193.518372 -238.572552 
L 193.526647 -237.492839 
L 193.53616 -236.413126 
L 193.546269 -235.333413 
L 193.556598 -234.2537 
L 193.567657 -233.173987 
L 193.581447 -232.094274 
L 193.601766 -231.014561 
L 193.634067 -229.934848 
L 193.684854 -228.855135 
L 193.760875 -227.775422 
L 193.868401 -226.695709 
L 194.012803 -225.615996 
L 194.198405 -224.536283 
L 194.428328 -223.45657 
L 194.704022 -222.376858 
L 195.024379 -221.297145 
L 195.384745 -220.217432 
L 195.77648 -219.137719 
L 196.187693 -218.058006 
L 196.605318 -216.978293 
L 197.01796 -215.89858 
L 197.418443 -214.818867 
L 197.804958 -213.739154 
L 198.180427 -212.659441 
L 198.550518 -211.579728 
L 198.921378 -210.500015 
L 199.298108 -209.420302 
L 199.684366 -208.340589 
L 200.082769 -207.260876 
L 200.495228 -206.181163 
L 200.922541 -205.10145 
L 201.363129 -204.021737 
L 201.811625 -202.942024 
L 202.258372 -201.862311 
L 202.690605 -200.782598 
L 203.095238 -199.702885 
L 203.4623 -198.623172 
L 203.787638 -197.543459 
L 204.073709 -196.463746 
L 204.327984 -195.384033 
L 204.55927 -194.30432 
L 204.773106 -193.224607 
L 204.967977 -192.144894 
L 205.134206 -191.065182 
L 205.256607 -189.985469 
L 205.320307 -188.905756 
L 205.317376 -187.826043 
L 205.251047 -186.74633 
L 205.135179 -185.666617 
L 204.989047 -184.586904 
L 204.82996 -183.507191 
L 204.667358 -182.427478 
L 204.501016 -181.347765 
L 204.323548 -180.268052 
L 204.125106 -179.188339 
L 203.897404 -178.108626 
L 203.635213 -177.028913 
L 203.335381 -175.9492 
L 202.994929 -174.869487 
L 202.609972 -173.789774 
L 202.176396 -172.710061 
L 201.692078 -171.630348 
L 201.159591 -170.550635 
L 200.588216 -169.470922 
L 199.994326 -168.391209 
L 199.399799 -167.311496 
L 198.828732 -166.231783 
L 198.30323 -165.15207 
L 197.839297 -164.072357 
L 197.443834 -162.992644 
L 197.113497 -161.912931 
L 196.835763 -160.833218 
L 196.592046 -159.753506 
L 196.362145 -158.673793 
L 196.128816 -157.59408 
L 195.881199 -156.514367 
L 195.616218 -155.434654 
L 195.337893 -154.354941 
L 195.055178 -153.275228 
L 194.779285 -152.195515 
L 194.521302 -151.115802 
L 194.29049 -150.036089 
L 194.093287 -148.956376 
L 193.932873 -147.876663 
L 193.809131 -146.79695 
L 193.718963 -145.717237 
L 193.656958 -144.637524 
L 193.616376 -143.557811 
L 193.590302 -142.478098 
L 193.57274 -141.398385 
L 193.55935 -140.318672 
L 193.54767 -139.238959 
L 193.536827 -138.159246 
L 193.526944 -137.079533 
L 193.518496 -135.99982 
L 193.511849 -134.920107 
L 193.507062 -133.840394 
z
" style="stroke: #494949; stroke-width: 1.5"/>
    </defs>
    <g clip-path="url(#p8ebebcb4cd)">
     <use xlink:href="#m9bd51c8dca" x="0" y="288" style="fill: #5f9e6e; stroke: #494949; stroke-width: 1.5"/>
    </g>
   </g>
   <g id="PolyCollection_4">
    <defs>
     <path id="mabaaff4d04" d="M 249.318561 -155.395301 
L 249.281439 -155.395301 
L 249.265935 -156.285817 
L 249.241054 -157.176333 
L 249.203588 -158.066848 
L 249.150529 -158.957364 
L 249.079691 -159.84788 
L 248.990285 -160.738396 
L 248.883279 -161.628912 
L 248.761358 -162.519427 
L 248.628421 -163.409943 
L 248.488677 -164.300459 
L 248.345528 -165.190975 
L 248.200555 -166.08149 
L 248.052932 -166.972006 
L 247.899462 -167.862522 
L 247.735263 -168.753038 
L 247.55486 -169.643554 
L 247.353306 -170.534069 
L 247.12693 -171.424585 
L 246.873471 -172.315101 
L 246.591624 -173.205617 
L 246.2803 -174.096133 
L 245.938007 -174.986648 
L 245.56268 -175.877164 
L 245.151933 -176.76768 
L 244.703423 -177.658196 
L 244.214986 -178.548711 
L 243.684581 -179.439227 
L 243.110607 -180.329743 
L 242.49332 -181.220259 
L 241.837482 -182.110775 
L 241.155237 -183.00129 
L 240.46742 -183.891806 
L 239.801767 -184.782322 
L 239.18787 -185.672838 
L 238.650498 -186.563353 
L 238.203785 -187.453869 
L 237.848344 -188.344385 
L 237.571893 -189.234901 
L 237.352556 -190.125417 
L 237.163372 -191.015932 
L 236.976917 -191.906448 
L 236.769687 -192.796964 
L 236.526219 -193.68748 
L 236.242608 -194.577996 
L 235.928332 -195.468511 
L 235.605018 -196.359027 
L 235.301557 -197.249543 
L 235.046637 -198.140059 
L 234.861338 -199.030574 
L 234.754792 -199.92109 
L 234.724635 -200.811606 
L 234.761667 -201.702122 
L 234.856213 -202.592638 
L 235.003074 -203.483153 
L 235.203069 -204.373669 
L 235.461094 -205.264185 
L 235.782328 -206.154701 
L 236.168894 -207.045217 
L 236.618593 -207.935732 
L 237.125945 -208.826248 
L 237.684449 -209.716764 
L 238.288461 -210.60728 
L 238.933524 -211.497795 
L 239.614976 -212.388311 
L 240.32564 -213.278827 
L 241.053825 -214.169343 
L 241.782745 -215.059859 
L 242.491873 -215.950374 
L 243.160051 -216.84089 
L 243.769527 -217.731406 
L 244.309803 -218.621922 
L 244.780156 -219.512437 
L 245.189974 -220.402953 
L 245.556598 -221.293469 
L 245.900981 -222.183985 
L 246.242193 -223.074501 
L 246.592342 -223.965016 
L 246.953543 -224.855532 
L 247.317994 -225.746048 
L 247.671126 -226.636564 
L 247.996583 -227.52708 
L 248.281116 -228.417595 
L 248.517704 -229.308111 
L 248.70608 -230.198627 
L 248.851089 -231.089143 
L 248.960082 -231.979658 
L 249.040633 -232.870174 
L 249.099317 -233.76069 
L 249.141536 -234.651206 
L 249.171844 -235.541722 
L 249.194201 -236.432237 
L 249.211906 -237.322753 
L 249.227318 -238.213269 
L 249.241666 -239.103785 
L 249.255154 -239.994301 
L 249.267349 -240.884816 
L 249.277656 -241.775332 
L 249.285698 -242.665848 
L 249.291463 -243.556364 
L 249.308537 -243.556364 
L 249.308537 -243.556364 
L 249.314302 -242.665848 
L 249.322344 -241.775332 
L 249.332651 -240.884816 
L 249.344846 -239.994301 
L 249.358334 -239.103785 
L 249.372682 -238.213269 
L 249.388094 -237.322753 
L 249.405799 -236.432237 
L 249.428156 -235.541722 
L 249.458464 -234.651206 
L 249.500683 -233.76069 
L 249.559367 -232.870174 
L 249.639918 -231.979658 
L 249.748911 -231.089143 
L 249.89392 -230.198627 
L 250.082296 -229.308111 
L 250.318884 -228.417595 
L 250.603417 -227.52708 
L 250.928874 -226.636564 
L 251.282006 -225.746048 
L 251.646457 -224.855532 
L 252.007658 -223.965016 
L 252.357807 -223.074501 
L 252.699019 -222.183985 
L 253.043402 -221.293469 
L 253.410026 -220.402953 
L 253.819844 -219.512437 
L 254.290197 -218.621922 
L 254.830473 -217.731406 
L 255.439949 -216.84089 
L 256.108127 -215.950374 
L 256.817255 -215.059859 
L 257.546175 -214.169343 
L 258.27436 -213.278827 
L 258.985024 -212.388311 
L 259.666476 -211.497795 
L 260.311539 -210.60728 
L 260.915551 -209.716764 
L 261.474055 -208.826248 
L 261.981407 -207.935732 
L 262.431106 -207.045217 
L 262.817672 -206.154701 
L 263.138906 -205.264185 
L 263.396931 -204.373669 
L 263.596926 -203.483153 
L 263.743787 -202.592638 
L 263.838333 -201.702122 
L 263.875365 -200.811606 
L 263.845208 -199.92109 
L 263.738662 -199.030574 
L 263.553363 -198.140059 
L 263.298443 -197.249543 
L 262.994982 -196.359027 
L 262.671668 -195.468511 
L 262.357392 -194.577996 
L 262.073781 -193.68748 
L 261.830313 -192.796964 
L 261.623083 -191.906448 
L 261.436628 -191.015932 
L 261.247444 -190.125417 
L 261.028107 -189.234901 
L 260.751656 -188.344385 
L 260.396215 -187.453869 
L 259.949502 -186.563353 
L 259.41213 -185.672838 
L 258.798233 -184.782322 
L 258.13258 -183.891806 
L 257.444763 -183.00129 
L 256.762518 -182.110775 
L 256.10668 -181.220259 
L 255.489393 -180.329743 
L 254.915419 -179.439227 
L 254.385014 -178.548711 
L 253.896577 -177.658196 
L 253.448067 -176.76768 
L 253.03732 -175.877164 
L 252.661993 -174.986648 
L 252.3197 -174.096133 
L 252.008376 -173.205617 
L 251.726529 -172.315101 
L 251.47307 -171.424585 
L 251.246694 -170.534069 
L 251.04514 -169.643554 
L 250.864737 -168.753038 
L 250.700538 -167.862522 
L 250.547068 -166.972006 
L 250.399445 -166.08149 
L 250.254472 -165.190975 
L 250.111323 -164.300459 
L 249.971579 -163.409943 
L 249.838642 -162.519427 
L 249.716721 -161.628912 
L 249.609715 -160.738396 
L 249.520309 -159.84788 
L 249.449471 -158.957364 
L 249.396412 -158.066848 
L 249.358946 -157.176333 
L 249.334065 -156.285817 
L 249.318561 -155.395301 
z
" style="stroke: #494949; stroke-width: 1.5"/>
    </defs>
    <g clip-path="url(#p8ebebcb4cd)">
     <use xlink:href="#mabaaff4d04" x="0" y="288" style="fill: #b55d60; stroke: #494949; stroke-width: 1.5"/>
    </g>
   </g>
   <g id="PolyCollection_5">
    <defs>
     <path id="mc436dbb981" d="M 305.111711 -153.564719 
L 305.088289 -153.564719 
L 305.079178 -154.292311 
L 305.065593 -155.019902 
L 305.046677 -155.747494 
L 305.02148 -156.475085 
L 304.988273 -157.202677 
L 304.943599 -157.930268 
L 304.881618 -158.65786 
L 304.794494 -159.385451 
L 304.674145 -160.113043 
L 304.514893 -160.840634 
L 304.315712 -161.568226 
L 304.080699 -162.295817 
L 303.817217 -163.023409 
L 303.532578 -163.751 
L 303.231124 -164.478592 
L 302.913437 -165.206183 
L 302.577871 -165.933775 
L 302.222702 -166.661366 
L 301.846276 -167.388958 
L 301.443685 -168.116549 
L 301.001284 -168.844141 
L 300.493107 -169.571732 
L 299.883685 -170.299324 
L 299.1391 -171.026915 
L 298.243257 -171.754507 
L 297.21202 -172.482098 
L 296.096988 -173.20969 
L 294.974484 -173.937281 
L 293.922564 -174.664873 
L 292.995535 -175.392464 
L 292.207567 -176.120056 
L 291.532718 -176.847647 
L 290.920468 -177.575239 
L 290.318509 -178.30283 
L 289.692296 -179.030422 
L 289.034315 -179.758013 
L 288.362195 -180.485605 
L 287.709678 -181.213196 
L 287.115658 -181.940788 
L 286.614613 -182.668379 
L 286.229275 -183.395971 
L 285.965501 -184.123562 
L 285.810357 -184.851154 
L 285.735553 -185.578745 
L 285.707407 -186.306337 
L 285.701052 -187.033928 
L 285.712947 -187.761519 
L 285.765144 -188.489111 
L 285.898504 -189.216702 
L 286.158003 -189.944294 
L 286.577056 -190.671885 
L 287.166909 -191.399477 
L 287.912989 -192.127068 
L 288.776714 -192.85466 
L 289.701399 -193.582251 
L 290.622757 -194.309843 
L 291.484375 -195.037434 
L 292.254713 -195.765026 
L 292.937816 -196.492617 
L 293.57025 -197.220209 
L 294.203542 -197.9478 
L 294.880459 -198.675392 
L 295.617633 -199.402983 
L 296.402811 -200.130575 
L 297.205515 -200.858166 
L 297.992441 -201.585758 
L 298.738449 -202.313349 
L 299.429588 -203.040941 
L 300.060783 -203.768532 
L 300.632894 -204.496124 
L 301.151482 -205.223715 
L 301.626129 -205.951307 
L 302.068098 -206.678898 
L 302.486014 -207.40649 
L 302.8818 -208.134081 
L 303.249753 -208.861673 
L 303.579717 -209.589264 
L 303.862609 -210.316856 
L 304.095183 -211.044447 
L 304.281624 -211.772039 
L 304.431616 -212.49963 
L 304.556321 -213.227222 
L 304.66447 -213.954813 
L 304.760217 -214.682405 
L 304.843323 -215.409996 
L 304.911103 -216.137588 
L 304.960973 -216.865179 
L 304.992456 -217.592771 
L 305.008002 -218.320362 
L 305.012547 -219.047954 
L 305.01216 -219.775545 
L 305.012357 -220.503137 
L 305.016716 -221.230728 
L 305.026261 -221.95832 
L 305.039779 -222.685911 
L 305.054837 -223.413503 
L 305.068956 -224.141094 
L 305.080458 -224.868686 
L 305.088738 -225.596277 
L 305.111262 -225.596277 
L 305.111262 -225.596277 
L 305.119542 -224.868686 
L 305.131044 -224.141094 
L 305.145163 -223.413503 
L 305.160221 -222.685911 
L 305.173739 -221.95832 
L 305.183284 -221.230728 
L 305.187643 -220.503137 
L 305.18784 -219.775545 
L 305.187453 -219.047954 
L 305.191998 -218.320362 
L 305.207544 -217.592771 
L 305.239027 -216.865179 
L 305.288897 -216.137588 
L 305.356677 -215.409996 
L 305.439783 -214.682405 
L 305.53553 -213.954813 
L 305.643679 -213.227222 
L 305.768384 -212.49963 
L 305.918376 -211.772039 
L 306.104817 -211.044447 
L 306.337391 -210.316856 
L 306.620283 -209.589264 
L 306.950247 -208.861673 
L 307.3182 -208.134081 
L 307.713986 -207.40649 
L 308.131902 -206.678898 
L 308.573871 -205.951307 
L 309.048518 -205.223715 
L 309.567106 -204.496124 
L 310.139217 -203.768532 
L 310.770412 -203.040941 
L 311.461551 -202.313349 
L 312.207559 -201.585758 
L 312.994485 -200.858166 
L 313.797189 -200.130575 
L 314.582367 -199.402983 
L 315.319541 -198.675392 
L 315.996458 -197.9478 
L 316.62975 -197.220209 
L 317.262184 -196.492617 
L 317.945287 -195.765026 
L 318.715625 -195.037434 
L 319.577243 -194.309843 
L 320.498601 -193.582251 
L 321.423286 -192.85466 
L 322.287011 -192.127068 
L 323.033091 -191.399477 
L 323.622944 -190.671885 
L 324.041997 -189.944294 
L 324.301496 -189.216702 
L 324.434856 -188.489111 
L 324.487053 -187.761519 
L 324.498948 -187.033928 
L 324.492593 -186.306337 
L 324.464447 -185.578745 
L 324.389643 -184.851154 
L 324.234499 -184.123562 
L 323.970725 -183.395971 
L 323.585387 -182.668379 
L 323.084342 -181.940788 
L 322.490322 -181.213196 
L 321.837805 -180.485605 
L 321.165685 -179.758013 
L 320.507704 -179.030422 
L 319.881491 -178.30283 
L 319.279532 -177.575239 
L 318.667282 -176.847647 
L 317.992433 -176.120056 
L 317.204465 -175.392464 
L 316.277436 -174.664873 
L 315.225516 -173.937281 
L 314.103012 -173.20969 
L 312.98798 -172.482098 
L 311.956743 -171.754507 
L 311.0609 -171.026915 
L 310.316315 -170.299324 
L 309.706893 -169.571732 
L 309.198716 -168.844141 
L 308.756315 -168.116549 
L 308.353724 -167.388958 
L 307.977298 -166.661366 
L 307.622129 -165.933775 
L 307.286563 -165.206183 
L 306.968876 -164.478592 
L 306.667422 -163.751 
L 306.382783 -163.023409 
L 306.119301 -162.295817 
L 305.884288 -161.568226 
L 305.685107 -160.840634 
L 305.525855 -160.113043 
L 305.405506 -159.385451 
L 305.318382 -158.65786 
L 305.256401 -157.930268 
L 305.211727 -157.202677 
L 305.17852 -156.475085 
L 305.153323 -155.747494 
L 305.134407 -155.019902 
L 305.120822 -154.292311 
L 305.111711 -153.564719 
z
" style="stroke: #494949; stroke-width: 1.5"/>
    </defs>
    <g clip-path="url(#p8ebebcb4cd)">
     <use xlink:href="#mc436dbb981" x="0" y="288" style="fill: #857aab; stroke: #494949; stroke-width: 1.5"/>
    </g>
   </g>
   <g id="PolyCollection_6">
    <defs>
     <path id="mea705a2593" d="M 360.914679 -45.883636 
L 360.885321 -45.883636 
L 360.873644 -46.525232 
L 360.855856 -47.166827 
L 360.83064 -47.808423 
L 360.796964 -48.450019 
L 360.753819 -49.091614 
L 360.699543 -49.73321 
L 360.631042 -50.374805 
L 360.54347 -51.016401 
L 360.430907 -51.657996 
L 360.288104 -52.299592 
L 360.112668 -52.941187 
L 359.906552 -53.582783 
L 359.675912 -54.224378 
L 359.429146 -54.865974 
L 359.173859 -55.507569 
L 358.91389 -56.149165 
L 358.647238 -56.790761 
L 358.365214 -57.432356 
L 358.05286 -58.073952 
L 357.690961 -58.715547 
L 357.259999 -59.357143 
L 356.745738 -59.998738 
L 356.144656 -60.640334 
L 355.466316 -61.281929 
L 354.730421 -61.923525 
L 353.95898 -62.56512 
L 353.167386 -63.206716 
L 352.359726 -63.848311 
L 351.531522 -64.489907 
L 350.678333 -65.131503 
L 349.804324 -65.773098 
L 348.924462 -66.414694 
L 348.058089 -67.056289 
L 347.217594 -67.697885 
L 346.399603 -68.33948 
L 345.584896 -68.981076 
L 344.748003 -69.622671 
L 343.871625 -70.264267 
L 342.958361 -70.905862 
L 342.034094 -71.547458 
L 341.142208 -72.189053 
L 340.332339 -72.830649 
L 339.649028 -73.472245 
L 339.124038 -74.11384 
L 338.773172 -74.755436 
L 338.596396 -75.397031 
L 338.58 -76.038627 
L 338.7004 -76.680222 
L 338.929561 -77.321818 
L 339.241124 -77.963413 
L 339.615168 -78.605009 
L 340.039425 -79.246604 
L 340.506573 -79.8882 
L 341.009841 -80.529795 
L 341.540643 -81.171391 
L 342.090663 -81.812987 
L 342.657432 -82.454582 
L 343.249497 -83.096178 
L 343.887088 -83.737773 
L 344.597013 -84.379369 
L 345.403855 -85.020964 
L 346.321062 -85.66256 
L 347.344829 -86.304155 
L 348.452143 -86.945751 
L 349.603332 -87.587346 
L 350.748844 -88.228942 
L 351.838948 -88.870538 
L 352.833781 -89.512133 
L 353.710647 -90.153729 
L 354.466583 -90.795324 
L 355.116087 -91.43692 
L 355.685374 -92.078515 
L 356.204815 -92.720111 
L 356.701064 -93.361706 
L 357.190499 -94.003302 
L 357.675855 -94.644897 
L 358.147426 -95.286493 
L 358.588421 -95.928088 
L 358.982117 -96.569684 
L 359.317639 -97.21128 
L 359.592374 -97.852875 
L 359.811101 -98.494471 
L 359.983376 -99.136066 
L 360.120719 -99.777662 
L 360.234256 -100.419257 
L 360.332865 -101.060853 
L 360.421948 -101.702448 
L 360.50324 -102.344044 
L 360.575903 -102.985639 
L 360.638429 -103.627235 
L 360.690344 -104.26883 
L 360.732807 -104.910426 
L 360.768013 -105.552022 
L 360.798052 -106.193617 
L 360.824085 -106.835213 
L 360.846267 -107.476808 
L 360.864255 -108.118404 
L 360.877831 -108.759999 
L 360.887251 -109.401595 
L 360.912749 -109.401595 
L 360.912749 -109.401595 
L 360.922169 -108.759999 
L 360.935745 -108.118404 
L 360.953733 -107.476808 
L 360.975915 -106.835213 
L 361.001948 -106.193617 
L 361.031987 -105.552022 
L 361.067193 -104.910426 
L 361.109656 -104.26883 
L 361.161571 -103.627235 
L 361.224097 -102.985639 
L 361.29676 -102.344044 
L 361.378052 -101.702448 
L 361.467135 -101.060853 
L 361.565744 -100.419257 
L 361.679281 -99.777662 
L 361.816624 -99.136066 
L 361.988899 -98.494471 
L 362.207626 -97.852875 
L 362.482361 -97.21128 
L 362.817883 -96.569684 
L 363.211579 -95.928088 
L 363.652574 -95.286493 
L 364.124145 -94.644897 
L 364.609501 -94.003302 
L 365.098936 -93.361706 
L 365.595185 -92.720111 
L 366.114626 -92.078515 
L 366.683913 -91.43692 
L 367.333417 -90.795324 
L 368.089353 -90.153729 
L 368.966219 -89.512133 
L 369.961052 -88.870538 
L 371.051156 -88.228942 
L 372.196668 -87.587346 
L 373.347857 -86.945751 
L 374.455171 -86.304155 
L 375.478938 -85.66256 
L 376.396145 -85.020964 
L 377.202987 -84.379369 
L 377.912912 -83.737773 
L 378.550503 -83.096178 
L 379.142568 -82.454582 
L 379.709337 -81.812987 
L 380.259357 -81.171391 
L 380.790159 -80.529795 
L 381.293427 -79.8882 
L 381.760575 -79.246604 
L 382.184832 -78.605009 
L 382.558876 -77.963413 
L 382.870439 -77.321818 
L 383.0996 -76.680222 
L 383.22 -76.038627 
L 383.203604 -75.397031 
L 383.026828 -74.755436 
L 382.675962 -74.11384 
L 382.150972 -73.472245 
L 381.467661 -72.830649 
L 380.657792 -72.189053 
L 379.765906 -71.547458 
L 378.841639 -70.905862 
L 377.928375 -70.264267 
L 377.051997 -69.622671 
L 376.215104 -68.981076 
L 375.400397 -68.33948 
L 374.582406 -67.697885 
L 373.741911 -67.056289 
L 372.875538 -66.414694 
L 371.995676 -65.773098 
L 371.121667 -65.131503 
L 370.268478 -64.489907 
L 369.440274 -63.848311 
L 368.632614 -63.206716 
L 367.84102 -62.56512 
L 367.069579 -61.923525 
L 366.333684 -61.281929 
L 365.655344 -60.640334 
L 365.054262 -59.998738 
L 364.540001 -59.357143 
L 364.109039 -58.715547 
L 363.74714 -58.073952 
L 363.434786 -57.432356 
L 363.152762 -56.790761 
L 362.88611 -56.149165 
L 362.626141 -55.507569 
L 362.370854 -54.865974 
L 362.124088 -54.224378 
L 361.893448 -53.582783 
L 361.687332 -52.941187 
L 361.511896 -52.299592 
L 361.369093 -51.657996 
L 361.25653 -51.016401 
L 361.168958 -50.374805 
L 361.100457 -49.73321 
L 361.046181 -49.091614 
L 361.003036 -48.450019 
L 360.96936 -47.808423 
L 360.944144 -47.166827 
L 360.926356 -46.525232 
L 360.914679 -45.883636 
z
" style="stroke: #494949; stroke-width: 1.5"/>
    </defs>
    <g clip-path="url(#p8ebebcb4cd)">
     <use xlink:href="#mea705a2593" x="0" y="288" style="fill: #8d7866; stroke: #494949; stroke-width: 1.5"/>
    </g>
   </g>
   <g id="line2d_6">
    <path d="M 74.468004 173.689722 
L 89.331996 173.689722 
" clip-path="url(#p8ebebcb4cd)" style="fill: none; stroke-dasharray: 3.375,3.375; stroke-dashoffset: 0; stroke: #494949; stroke-width: 1.5"/>
   </g>
   <g id="line2d_7">
    <path d="M 73.189098 159.462981 
L 90.610902 159.462981 
" clip-path="url(#p8ebebcb4cd)" style="fill: none; stroke-dasharray: 6.75,6.75; stroke-dashoffset: 0; stroke: #494949; stroke-width: 1.5"/>
   </g>
   <g id="line2d_8">
    <path d="M 74.750145 143.889653 
L 89.049855 143.889653 
" clip-path="url(#p8ebebcb4cd)" style="fill: none; stroke-dasharray: 3.375,3.375; stroke-dashoffset: 0; stroke: #494949; stroke-width: 1.5"/>
   </g>
   <g id="line2d_9">
    <path d="M 129.011209 143.403429 
L 146.388791 143.403429 
" clip-path="url(#p8ebebcb4cd)" style="fill: none; stroke-dasharray: 3.375,3.375; stroke-dashoffset: 0; stroke: #494949; stroke-width: 1.5"/>
   </g>
   <g id="line2d_10">
    <path d="M 128.703515 130.242255 
L 146.696485 130.242255 
" clip-path="url(#p8ebebcb4cd)" style="fill: none; stroke-dasharray: 6.75,6.75; stroke-dashoffset: 0; stroke: #494949; stroke-width: 1.5"/>
   </g>
   <g id="line2d_11">
    <path d="M 129.362637 116.145018 
L 146.037363 116.145018 
" clip-path="url(#p8ebebcb4cd)" style="fill: none; stroke-dasharray: 3.375,3.375; stroke-dashoffset: 0; stroke: #494949; stroke-width: 1.5"/>
   </g>
   <g id="line2d_12">
    <path d="M 183.46614 111.396994 
L 203.53386 111.396994 
" clip-path="url(#p8ebebcb4cd)" style="fill: none; stroke-dasharray: 3.375,3.375; stroke-dashoffset: 0; stroke: #494949; stroke-width: 1.5"/>
   </g>
   <g id="line2d_13">
    <path d="M 181.800797 100.008742 
L 205.199203 100.008742 
" clip-path="url(#p8ebebcb4cd)" style="fill: none; stroke-dasharray: 6.75,6.75; stroke-dashoffset: 0; stroke: #494949; stroke-width: 1.5"/>
   </g>
   <g id="line2d_14">
    <path d="M 183.637323 88.885851 
L 203.362677 88.885851 
" clip-path="url(#p8ebebcb4cd)" style="fill: none; stroke-dasharray: 3.375,3.375; stroke-dashoffset: 0; stroke: #494949; stroke-width: 1.5"/>
   </g>
   <g id="line2d_15">
    <path d="M 237.689174 98.995747 
L 260.910826 98.995747 
" clip-path="url(#p8ebebcb4cd)" style="fill: none; stroke-dasharray: 3.375,3.375; stroke-dashoffset: 0; stroke: #494949; stroke-width: 1.5"/>
   </g>
   <g id="line2d_16">
    <path d="M 235.005725 89.100246 
L 263.594275 89.100246 
" clip-path="url(#p8ebebcb4cd)" style="fill: none; stroke-dasharray: 6.75,6.75; stroke-dashoffset: 0; stroke: #494949; stroke-width: 1.5"/>
   </g>
   <g id="line2d_17">
    <path d="M 236.745407 80.424539 
L 261.854593 80.424539 
" clip-path="url(#p8ebebcb4cd)" style="fill: none; stroke-dasharray: 3.375,3.375; stroke-dashoffset: 0; stroke: #494949; stroke-width: 1.5"/>
   </g>
   <g id="line2d_18">
    <path d="M 289.194972 108.098121 
L 321.005028 108.098121 
" clip-path="url(#p8ebebcb4cd)" style="fill: none; stroke-dasharray: 3.375,3.375; stroke-dashoffset: 0; stroke: #494949; stroke-width: 1.5"/>
   </g>
   <g id="line2d_19">
    <path d="M 285.901333 101.508439 
L 324.298667 101.508439 
" clip-path="url(#p8ebebcb4cd)" style="fill: none; stroke-dasharray: 6.75,6.75; stroke-dashoffset: 0; stroke: #494949; stroke-width: 1.5"/>
   </g>
   <g id="line2d_20">
    <path d="M 289.855385 94.762882 
L 320.344615 94.762882 
" clip-path="url(#p8ebebcb4cd)" style="fill: none; stroke-dasharray: 3.375,3.375; stroke-dashoffset: 0; stroke: #494949; stroke-width: 1.5"/>
   </g>
   <g id="line2d_21">
    <path d="M 343.137777 217.144447 
L 378.662223 217.144447 
" clip-path="url(#p8ebebcb4cd)" style="fill: none; stroke-dasharray: 3.375,3.375; stroke-dashoffset: 0; stroke: #494949; stroke-width: 1.5"/>
   </g>
   <g id="line2d_22">
    <path d="M 338.922396 211.324848 
L 382.877604 211.324848 
" clip-path="url(#p8ebebcb4cd)" style="fill: none; stroke-dasharray: 6.75,6.75; stroke-dashoffset: 0; stroke: #494949; stroke-width: 1.5"/>
   </g>
   <g id="line2d_23">
    <path d="M 343.426002 205.092569 
L 378.373998 205.092569 
" clip-path="url(#p8ebebcb4cd)" style="fill: none; stroke-dasharray: 3.375,3.375; stroke-dashoffset: 0; stroke: #494949; stroke-width: 1.5"/>
   </g>
   <g id="patch_3">
    <path d="M 54 252 
L 54 34.56 
" style="fill: none; stroke: #ffffff; stroke-width: 1.25; stroke-linejoin: miter; stroke-linecap: square"/>
   </g>
   <g id="patch_4">
    <path d="M 388.8 252 
L 388.8 34.56 
" style="fill: none; stroke: #ffffff; stroke-width: 1.25; stroke-linejoin: miter; stroke-linecap: square"/>
   </g>
   <g id="patch_5">
    <path d="M 54 252 
L 388.8 252 
" style="fill: none; stroke: #ffffff; stroke-width: 1.25; stroke-linejoin: miter; stroke-linecap: square"/>
   </g>
   <g id="patch_6">
    <path d="M 54 34.56 
L 388.8 34.56 
" style="fill: none; stroke: #ffffff; stroke-width: 1.25; stroke-linejoin: miter; stroke-linecap: square"/>
   </g>
   <g id="text_14">
    <!-- Motor: A para Populao do MMC: 1000 -->
    <g style="fill: #262626" transform="translate(114.676875 28.56)scale(0.12 -0.12)">
     <defs>
      <path id="ArialMT-4d" d="M 475 0 
L 475 4581 
L 1388 4581 
L 2472 1338 
Q 2622 884 2691 659 
Q 2769 909 2934 1394 
L 4031 4581 
L 4847 4581 
L 4847 0 
L 4263 0 
L 4263 3834 
L 2931 0 
L 2384 0 
L 1059 3900 
L 1059 0 
L 475 0 
z
" transform="scale(0.015625)"/>
      <path id="ArialMT-72" d="M 416 0 
L 416 3319 
L 922 3319 
L 922 2816 
Q 1116 3169 1280 3281 
Q 1444 3394 1641 3394 
Q 1925 3394 2219 3213 
L 2025 2691 
Q 1819 2813 1613 2813 
Q 1428 2813 1281 2702 
Q 1134 2591 1072 2394 
Q 978 2094 978 1738 
L 978 0 
L 416 0 
z
" transform="scale(0.015625)"/>
      <path id="ArialMT-3a" d="M 578 2678 
L 578 3319 
L 1219 3319 
L 1219 2678 
L 578 2678 
z
M 578 0 
L 578 641 
L 1219 641 
L 1219 0 
L 578 0 
z
" transform="scale(0.015625)"/>
      <path id="ArialMT-41" d="M -9 0 
L 1750 4581 
L 2403 4581 
L 4278 0 
L 3588 0 
L 3053 1388 
L 1138 1388 
L 634 0 
L -9 0 
z
M 1313 1881 
L 2866 1881 
L 2388 3150 
Q 2169 3728 2063 4100 
Q 1975 3659 1816 3225 
L 1313 1881 
z
" transform="scale(0.015625)"/>
      <path id="ArialMT-6c" d="M 409 0 
L 409 4581 
L 972 4581 
L 972 0 
L 409 0 
z
" transform="scale(0.015625)"/>
      <path id="ArialMT-e7" d="M 2588 1216 
L 3141 1144 
Q 3050 572 2676 248 
Q 2303 -75 1759 -75 
Q 1078 -75 664 370 
Q 250 816 250 1647 
Q 250 2184 428 2587 
Q 606 2991 970 3192 
Q 1334 3394 1763 3394 
Q 2303 3394 2647 3120 
Q 2991 2847 3088 2344 
L 2541 2259 
Q 2463 2594 2264 2762 
Q 2066 2931 1784 2931 
Q 1359 2931 1093 2626 
Q 828 2322 828 1663 
Q 828 994 1084 691 
Q 1341 388 1753 388 
Q 2084 388 2306 591 
Q 2528 794 2588 1216 
z
M 1283 -417 
L 1446 136 
L 1864 136 
L 1761 -199 
Q 2027 -230 2161 -362 
Q 2296 -495 2296 -658 
Q 2296 -892 2071 -1072 
Q 1846 -1252 1392 -1252 
Q 1136 -1252 942 -1214 
L 977 -849 
Q 1177 -861 1271 -861 
Q 1564 -861 1683 -780 
Q 1774 -717 1774 -627 
Q 1774 -570 1738 -526 
Q 1702 -483 1605 -451 
Q 1508 -420 1283 -417 
z
" transform="scale(0.015625)"/>
      <path id="ArialMT-e3" d="M 2588 409 
Q 2275 144 1986 34 
Q 1697 -75 1366 -75 
Q 819 -75 525 192 
Q 231 459 231 875 
Q 231 1119 342 1320 
Q 453 1522 633 1644 
Q 813 1766 1038 1828 
Q 1203 1872 1538 1913 
Q 2219 1994 2541 2106 
Q 2544 2222 2544 2253 
Q 2544 2597 2384 2738 
Q 2169 2928 1744 2928 
Q 1347 2928 1158 2789 
Q 969 2650 878 2297 
L 328 2372 
Q 403 2725 575 2942 
Q 747 3159 1072 3276 
Q 1397 3394 1825 3394 
Q 2250 3394 2515 3294 
Q 2781 3194 2906 3042 
Q 3031 2891 3081 2659 
Q 3109 2516 3109 2141 
L 3109 1391 
Q 3109 606 3145 398 
Q 3181 191 3288 0 
L 2700 0 
Q 2613 175 2588 409 
z
M 2541 1666 
Q 2234 1541 1622 1453 
Q 1275 1403 1131 1340 
Q 988 1278 909 1158 
Q 831 1038 831 891 
Q 831 666 1001 516 
Q 1172 366 1500 366 
Q 1825 366 2078 508 
Q 2331 650 2450 897 
Q 2541 1088 2541 1459 
L 2541 1666 
z
M 718 3809 
Q 715 4134 896 4328 
Q 1074 4522 1352 4522 
Q 1546 4522 1880 4353 
Q 2065 4259 2174 4259 
Q 2274 4259 2327 4314 
Q 2380 4369 2402 4531 
L 2809 4531 
Q 2799 4175 2629 3997 
Q 2459 3819 2196 3819 
Q 1999 3819 1677 3994 
Q 1468 4106 1371 4106 
Q 1265 4106 1199 4031 
Q 1130 3956 1134 3809 
L 718 3809 
z
" transform="scale(0.015625)"/>
      <path id="ArialMT-43" d="M 3763 1606 
L 4369 1453 
Q 4178 706 3683 314 
Q 3188 -78 2472 -78 
Q 1731 -78 1267 223 
Q 803 525 561 1097 
Q 319 1669 319 2325 
Q 319 3041 592 3573 
Q 866 4106 1370 4382 
Q 1875 4659 2481 4659 
Q 3169 4659 3637 4309 
Q 4106 3959 4291 3325 
L 3694 3184 
Q 3534 3684 3231 3912 
Q 2928 4141 2469 4141 
Q 1941 4141 1586 3887 
Q 1231 3634 1087 3207 
Q 944 2781 944 2328 
Q 944 1744 1114 1308 
Q 1284 872 1643 656 
Q 2003 441 2422 441 
Q 2931 441 3284 734 
Q 3638 1028 3763 1606 
z
" transform="scale(0.015625)"/>
     </defs>
     <use xlink:href="#ArialMT-4d"/>
     <use xlink:href="#ArialMT-6f" x="83.300781"/>
     <use xlink:href="#ArialMT-74" x="138.916016"/>
     <use xlink:href="#ArialMT-6f" x="166.699219"/>
     <use xlink:href="#ArialMT-72" x="222.314453"/>
     <use xlink:href="#ArialMT-3a" x="255.615234"/>
     <use xlink:href="#ArialMT-20" x="283.398438"/>
     <use xlink:href="#ArialMT-41" x="305.681641"/>
     <use xlink:href="#ArialMT-20" x="366.880859"/>
     <use xlink:href="#ArialMT-70" x="394.664062"/>
     <use xlink:href="#ArialMT-61" x="450.279297"/>
     <use xlink:href="#ArialMT-72" x="505.894531"/>
     <use xlink:href="#ArialMT-61" x="539.195312"/>
     <use xlink:href="#ArialMT-20" x="594.810547"/>
     <use xlink:href="#ArialMT-50" x="622.59375"/>
     <use xlink:href="#ArialMT-6f" x="689.292969"/>
     <use xlink:href="#ArialMT-70" x="744.908203"/>
     <use xlink:href="#ArialMT-75" x="800.523438"/>
     <use xlink:href="#ArialMT-6c" x="856.138672"/>
     <use xlink:href="#ArialMT-61" x="878.355469"/>
     <use xlink:href="#ArialMT-e7" x="933.970703"/>
     <use xlink:href="#ArialMT-e3" x="983.970703"/>
     <use xlink:href="#ArialMT-6f" x="1039.585938"/>
     <use xlink:href="#ArialMT-20" x="1095.201172"/>
     <use xlink:href="#ArialMT-64" x="1122.984375"/>
     <use xlink:href="#ArialMT-6f" x="1178.599609"/>
     <use xlink:href="#ArialMT-20" x="1234.214844"/>
     <use xlink:href="#ArialMT-4d" x="1261.998047"/>
     <use xlink:href="#ArialMT-4d" x="1345.298828"/>
     <use xlink:href="#ArialMT-43" x="1428.599609"/>
     <use xlink:href="#ArialMT-3a" x="1500.816406"/>
     <use xlink:href="#ArialMT-20" x="1528.599609"/>
     <use xlink:href="#ArialMT-31" x="1556.382812"/>
     <use xlink:href="#ArialMT-30" x="1611.998047"/>
     <use xlink:href="#ArialMT-30" x="1667.613281"/>
     <use xlink:href="#ArialMT-30" x="1723.228516"/>
    </g>
   </g>
  </g>
 </g>
 <defs>
  <clipPath id="p8ebebcb4cd">
   <rect x="54" y="34.56" width="334.8" height="217.44"/>
  </clipPath>
 </defs>
</svg>
